<svg width="33" height="30" viewBox="0 0 33 30" fill="none" xmlns="http://www.w3.org/2000/svg">
<path d="M0 7.5C0 5.43164 1.64427 3.75 3.66667 3.75H18.3333C20.3557 3.75 22 5.43164 22 7.5V22.5C22 24.5684 20.3557 26.25 18.3333 26.25H3.66667C1.64427 26.25 0 24.5684 0 22.5V7.5ZM32.0318 5.84766C32.6276 6.17578 33 6.80859 33 7.5V22.5C33 23.1914 32.6276 23.8242 32.0318 24.1523C31.4359 24.4805 30.7141 24.4453 30.1469 24.0586L24.6469 20.3086L23.8333 19.752V18.75V11.25V10.248L24.6469 9.69141L30.1469 5.94141C30.7083 5.56055 31.4302 5.51953 32.0318 5.84766Z" fill="white"/>
</svg>
